:SAMPLES-PER-SECOND 30
:FULLY-SPECIFIED
:DEGREES
488
root  -15.4274 33.1585 -6.25827 11.4585 18.7122 -176.689
Spine  -3.39501 0.351797 28.2137
Spine1  -3.64106 -7.90504 -16.8212
Neck  3.97569e-016 0 -2.38542e-015
Head  1.43366 -0.663715 4.70743
R_Clavicle  1.38321 20.9694 4.76799
R_UpperArm  57.4731 44.6293 -27.7036
R_Forearm  36.6375 -10.8926 19.1316
R_Hand  -25.3773 10.2606 -131.263
L_Clavicle  5.18 -28.7342 -11.4463
L_UpperArm  -39.767 -30.6227 -20.3613
L_Forearm  -66.7172 27.7609 56.377
L_Hand  -0.45546 -4.20306 -4.668
L_Thigh  -2.38771 31.6247 36.886
L_Calf  -8.64894 -7.68975 44.9098
L_Foot  2.37726 2.87416 7.21632
L_Toe0  0.505156 0.0344459 -6.1361
R_Thigh  0.422192 -43.4678 34.0404
R_Calf  0.453262 10.8033 36.1123
R_Foot  1.19376 2.43173 -5.37834
R_Toe0  -1.78853 -0.271841 -17.3235
489
root  -15.5693 33.4381 -5.31298 2.52295 8.7547 -175.748
Spine  -1.19022 3.92085 28.9355
Spine1  -2.56819 -10.0145 -18.3268
Neck  3.97569e-016 0 -2.38542e-015
Head  5.98732 0.171944 0.609511
R_Clavicle  1.77565 21.4932 5.7938
R_UpperArm  47.5591 47.2278 -36.5023
R_Forearm  41.2972 -10.9011 18.6797
R_Hand  -27.632 11.8352 -131.468
L_Clavicle  4.00071 -33.255 -7.33173
L_UpperArm  -44.559 -26.2774 -9.37578
L_Forearm  -98.1253 11.5924 25.5503
L_Hand  7.52979 -30.9529 -34.1707
L_Thigh  -1.4461 28.0812 35.1619
L_Calf  -7.18112 -7.90883 46.6774
L_Foot  2.322 2.44858 7.54796
L_Toe0  0.505156 0.034446 -6.1361
R_Thigh  -6.18283 -46.3163 41.3195
R_Calf  6.74726 11.4137 38.5753
R_Foot  0.679482 0.776531 -4.25112
R_Toe0  -1.78853 -0.271883 -17.3235
490
root  -15.2628 33.196 -4.32984 -7.27832 -2.15765 -175.417
Spine  1.75586 8.82924 29.9208
Spine1  -1.04391 -13.771 -19.0077
Neck  3.97569e-016 0 -2.38542e-015
Head  10.6299 0.475319 -1.40329
R_Clavicle  1.36594 23.7341 4.5627
R_UpperArm  39.3318 49.5451 -39.5922
R_Forearm  48.2685 -11.2906 17.7822
R_Hand  -31.3759 13.6143 -133.991
L_Clavicle  0.471399 -25.9858 0.834139
L_UpperArm  -41.7343 -33.7696 -8.75576
L_Forearm  -117.414 3.80647 13.2265
L_Hand  21.3682 -32.6966 -73.1209
L_Thigh  -1.18073 25.5744 33.4252
L_Calf  -5.29187 -7.56346 47.242
L_Foot  2.47743 3.02197 7.44181
L_Toe0  0.505156 0.034446 -6.1361
R_Thigh  -12.2709 -47.5566 47.7066
R_Calf  9.08571 11.4383 38.6723
R_Foot  0.542311 0.372139 -3.93452
R_Toe0  -1.78853 -0.271926 -17.3235
491
root  -14.455 32.5594 -3.56833 -16.9365 -12.8588 -176.023
Spine  5.9062 14.7416 31.8093
Spine1  1.4327 -20.5148 -19.2252
Neck  3.97569e-016 0 -2.38542e-015
Head  12.9694 -0.853231 0.480593
R_Clavicle  0.91538 23.9918 3.40022
R_UpperArm  34.972 49.6047 -35.9675
R_Forearm  59.641 -10.1366 13.7619
R_Hand  -35.014 15.9383 -134.504
L_Clavicle  -1.30848 -11.1852 6.69645
L_UpperArm  -31.0003 -44.8133 -18.8874
L_Forearm  -115.757 7.14542 12.0199
L_Hand  20.8709 -26.617 -86.9037
L_Thigh  -1.65656 23.2631 30.5491
L_Calf  -3.85399 -7.63304 47.1986
L_Foot  2.89438 3.31039 8.80581
L_Toe0  0.505156 0.034446 -6.1361
R_Thigh  -19.9652 -47.9161 54.8058
R_Calf  7.58533 10.8231 36.1802
R_Foot  0.141048 -0.850565 -3.20336
R_Toe0  -1.78853 -0.271969 -17.3235
492
root  -13.3549 31.7328 -3.30453 -25.751 -23.0316 -178.432
Spine  10.6974 19.7135 34.6635
Spine1  4.71211 -28.6701 -18.3133
Neck  3.97569e-016 0 -2.38542e-015
Head  12.7326 -2.80824 4.27196
R_Clavicle  0.849235 27.7794 3.17235
R_UpperArm  42.7329 44.5242 -24.0941
R_Forearm  73.5472 -4.06334 7.05191
R_Hand  -37.3142 20.1197 -129.808
L_Clavicle  -1.46537 -11.7283 7.44072
L_UpperArm  -29.628 -46.1353 -17.3425
L_Forearm  -112.54 9.90307 13.1003
L_Hand  22.2037 -28.0755 -87.6366
L_Thigh  -2.60616 20.7171 26.2174
L_Calf  -2.76346 -8.20946 47.0235
L_Foot  3.45475 3.35058 11.0508
L_Toe0  0.505156 0.034446 -6.1361
R_Thigh  -27.8043 -46.8614 63.1104
R_Calf  6.45773 10.1193 33.4347
R_Foot  -0.396521 -2.04868 -1.44104
R_Toe0  -1.78853 -0.272013 -17.3235
493
root  -12.1881 30.8781 -3.57856 -32.3071 -33.1888 177.402
Spine  13.9711 21.8214 36.8395
Spine1  6.91794 -33.4819 -16.2003
Neck  3.97569e-016 0 -2.38542e-015
Head  12.5902 -3.24342 6.88056
R_Clavicle  -0.0541274 27.5848 0.988693
R_UpperArm  49.3815 39.6903 -11.7622
R_Forearm  78.4719 1.57926 -0.0520445
R_Hand  -41.5985 31.6714 -116.465
L_Clavicle  -1.66143 -11.4282 8.29025
L_UpperArm  -27.7279 -47.9652 -15.509
L_Forearm  -110.212 11.5218 11.6716
L_Hand  24.6971 -31.4204 -85.4262
L_Thigh  -3.18153 17.4606 22.0112
L_Calf  -3.70481 -8.77154 46.3947
L_Foot  3.92091 4.22011 11.7134
L_Toe0  0.505156 0.034446 -6.1361
R_Thigh  -31.0736 -44.8505 71.6684
R_Calf  6.97045 9.88875 32.5606
R_Foot  -0.273243 -1.10398 -0.371981
R_Toe0  -1.78853 -0.272058 -17.3235
494
root  -11.1286 30.0579 -4.44578 -35.2622 -44.8058 172.257
Spine  15.0471 22.7546 37.6521
Spine1  6.91347 -33.4379 -14.2091
Neck  3.97569e-016 0 -2.38542e-015
Head  14.5839 -1.54339 8.31933
R_Clavicle  -0.797501 22.0699 -1.08205
R_UpperArm  42.7439 48.003 -2.29151
R_Forearm  70.1213 -2.67184 -1.39228
R_Hand  -32.4162 49.5334 -79.5851
L_Clavicle  -1.57945 -9.40045 8.50153
L_UpperArm  -29.4467 -47.5691 -11.6606
L_Forearm  -102.21 10.3339 10.4028
L_Hand  28.9586 -32.5673 -92.4052
L_Thigh  -3.10203 15.0617 19.5218
L_Calf  -5.94921 -8.89655 45.6999
L_Foot  4.23148 4.76676 12.1726
L_Toe0  0.431594 0.0386402 -6.20313
R_Thigh  -27.8588 -42.8702 77.2706
R_Calf  6.92811 9.941 32.7721
R_Foot  0.122537 0.302865 -0.316042
R_Toe0  -1.78853 -0.272103 -17.3235
